<svg id="Capa_1" enable-background="new 0 0 511.999 511.999" height="512" viewBox="0 0 511.999 511.999" width="512" xmlns="http://www.w3.org/2000/svg"><g><path d="m511.87 481.609-59.13-314.39v-108.93c0-20.28-16.51-36.79-36.79-36.79-20.29 0-36.79 16.51-36.79 36.79v49.66l-30.18 52.49h-94.27v-48.92c0-4.14-3.36-7.5-7.5-7.5s-7.5 3.36-7.5 7.5v48.92h-43.58v-102.15c0-5.82 2.27-11.29 6.38-15.41 4.12-4.11 9.59-6.38 15.41-6.38 12.02 0 21.79 9.77 21.79 21.79v23.23c0 4.14 3.36 7.5 7.5 7.5s7.5-3.36 7.5-7.5v-23.23c0-20.29-16.5-36.79-36.79-36.79-9.83 0-19.06 3.83-26.01 10.78s-10.78 16.18-10.78 26.01v49.65l-180.13 313.33c-.66 1.14-1 2.43-1 3.74v57.99c0 1.3.34 2.59 1.01 3.76 1.34 2.31 3.81 3.74 6.49 3.74h198.03c2.68 0 5.16-1.44 6.5-3.76l28.38-49.37c2.07-3.59.83-8.18-2.76-10.24-3.59-2.07-8.18-.83-10.24 2.76l-14.38 25.01v-27.89l166.13-288.97v27.9l-136.81 237.96c-2.07 3.59-.83 8.18 2.76 10.24 1.18.68 2.47 1 3.73 1 2.6 0 5.12-1.35 6.51-3.76l23.13-40.23 21.3 113.24c.67 3.54 3.76 6.11 7.37 6.11h197.35c2.23 0 4.35-.99 5.77-2.71 1.43-1.72 2.01-3.98 1.6-6.18zm-496.87-54.6 166.13-288.97v27.9l-166.13 288.97zm184.03-5.74c-.66 1.14-1 2.43-1 3.74v50.49h-177.57l172.51-300.06h147.39zm195.13-362.98c0-12.01 9.77-21.79 21.79-21.79 12.01 0 21.79 9.78 21.79 21.79v102.15h-43.58zm-3.16 117.15h48.02l12.22 64.99h-97.6zm-45.99 79.99h109.05l12.44 66.11h-159.5zm-45.34 147.21-9.69-51.5 8.4-14.6h170.94l12.43 66.1zm13.7 72.86-10.88-57.86h182.08l10.89 57.86z"/></g></svg>