<?xml version="1.0" encoding="iso-8859-1"?>
<!-- Generator: Adobe Illustrator 19.0.0, SVG Export Plug-In . SVG Version: 6.00 Build 0)  -->
<svg fill="#007261" version="1.1" id="Layer_1" xmlns="http://www.w3.org/2000/svg" xmlns:xlink="http://www.w3.org/1999/xlink" x="0px" y="0px"
	 viewBox="0 0 512 512" style="enable-background:new 0 0 512 512;" xml:space="preserve">
<g>
	<g>
		<path d="M504.396,318.197c-18.15,0-27.496,7.323-35.742,13.785c-7.52,5.893-13.46,10.547-26.361,10.547
			c-12.901,0-18.842-4.655-26.361-10.547c-8.246-6.461-17.592-13.785-35.742-13.785c-10.438,0-19.133,2.438-27.363,7.675
			c-3.543,2.254-4.589,6.954-2.335,10.497s6.952,4.588,10.497,2.334c4.119-2.62,9.621-5.298,19.201-5.298
			c12.901,0,18.842,4.655,26.361,10.547c8.246,6.461,17.591,13.785,35.742,13.785c18.15,0,27.496-7.323,35.742-13.785
			c7.52-5.893,13.46-10.547,26.361-10.547c4.2,0,7.604-3.405,7.604-7.604C512,321.602,508.596,318.197,504.396,318.197z"/>
	</g>
</g>
<g>
	<g>
		<path d="M54.501,339.451c-4.074-1.915-7.516-4.613-11.16-7.468c-8.245-6.462-17.589-13.786-35.738-13.786
			c-4.2,0-7.604,3.405-7.604,7.604c0,4.199,3.404,7.604,7.604,7.604c12.899,0,18.838,4.655,26.356,10.547
			c4.15,3.251,8.439,6.613,14.069,9.261c1.045,0.492,2.146,0.725,3.231,0.725c2.854,0,5.591-1.616,6.886-4.37
			C59.934,345.767,58.301,341.238,54.501,339.451z"/>
	</g>
</g>
<g>
	<g>
		<path d="M388.625,40.538c-53.249,0-96.57,43.317-96.57,96.56v73.758H126.3v-73.758c0-28.086,22.854-50.936,50.947-50.936
			c28.086,0,50.935,22.85,50.935,50.936v2.281c0,12.578,10.234,22.812,22.812,22.812c12.578,0,22.812-10.234,22.812-22.812v-2.281
			c0-53.244-43.317-96.56-96.559-96.56c-53.249,0-96.57,43.316-96.57,96.56v240.681c0,4.199,3.405,7.604,7.604,7.604
			c4.2,0,7.604-3.405,7.604-7.604V137.098c0-44.857,36.499-81.352,81.362-81.352c44.857,0,81.351,36.495,81.351,81.352v2.281
			c0,4.192-3.411,7.604-7.604,7.604c-4.193,0-7.604-3.412-7.604-7.604v-2.281c0-36.472-29.673-66.144-66.143-66.144
			c-36.478,0-66.154,29.673-66.154,66.144v221.985c0,4.199,3.404,7.604,7.604,7.604s7.604-3.405,7.604-7.604v-11.361h165.755v30.128
			c0,4.199,3.404,7.604,7.604,7.604s7.604-3.405,7.604-7.604V137.098c0-44.857,36.499-81.352,81.362-81.352
			c44.857,0,81.352,36.495,81.352,81.352v2.281c0,4.192-3.411,7.604-7.604,7.604s-7.604-3.412-7.604-7.604v-2.281
			c0-36.472-29.673-66.144-66.144-66.144c-36.478,0-66.154,29.673-66.154,66.144v27.744c0,4.199,3.404,7.604,7.604,7.604
			s7.604-3.405,7.604-7.604v-27.744c0-28.086,22.854-50.936,50.947-50.936c28.086,0,50.936,22.85,50.936,50.936v2.281
			c0,12.578,10.234,22.812,22.812,22.812c12.578,0,22.812-10.234,22.812-22.812v-2.281
			C485.185,83.855,441.868,40.538,388.625,40.538z M126.301,226.065h165.754v16.728H126.301V226.065z M292.056,300.578H186.622
			c-4.2,0-7.604,3.405-7.604,7.604s3.404,7.604,7.604,7.604h105.432v16.728H126.301v-16.728h34.975c4.2,0,7.604-3.405,7.604-7.604
			s-3.404-7.604-7.604-7.604H126.3v-42.579h165.756V300.578z"/>
	</g>
</g>
<g>
	<g>
		<path d="M330.076,182.585c-4.2,0-7.604,3.405-7.604,7.604v190.013c0,4.199,3.404,7.604,7.604,7.604s7.604-3.405,7.604-7.604
			V190.189C337.68,185.99,334.275,182.585,330.076,182.585z"/>
	</g>
</g>
<g>
	<g>
		<path d="M504.396,375.059c-18.15,0-27.496,7.323-35.742,13.785c-7.52,5.893-13.46,10.547-26.361,10.547
			c-12.901,0-18.842-4.655-26.361-10.547c-8.246-6.461-17.592-13.785-35.742-13.785c-18.149,0-27.495,7.324-35.741,13.785
			c-7.52,5.893-13.459,10.547-26.359,10.547c-12.9,0-18.84-4.655-26.359-10.547c-8.245-6.461-17.591-13.785-35.74-13.785
			c-18.148,0-27.493,7.324-35.738,13.785c-7.52,5.893-13.458,10.547-26.357,10.547c-12.9,0-18.839-4.655-26.358-10.547
			c-8.245-6.461-17.59-13.785-35.74-13.785c-18.149,0-27.495,7.324-35.74,13.785c-7.52,5.893-13.458,10.547-26.358,10.547
			c-12.9,0-18.839-4.655-26.358-10.547c-8.245-6.461-17.589-13.785-35.738-13.785c-4.2,0-7.604,3.405-7.604,7.604
			s3.404,7.604,7.604,7.604c12.899,0,18.838,4.655,26.357,10.547c8.245,6.461,17.589,13.785,35.739,13.785
			c18.148,0,27.494-7.323,35.739-13.785c7.52-5.893,13.459-10.547,26.359-10.547c12.9,0,18.84,4.655,26.359,10.547
			c8.245,6.461,17.591,13.785,35.739,13.785c18.148,0,27.493-7.324,35.738-13.785c7.52-5.893,13.458-10.547,26.357-10.547
			c12.9,0,18.84,4.655,26.359,10.547c8.245,6.461,17.59,13.785,35.74,13.785c18.149,0,27.494-7.323,35.74-13.785
			c7.52-5.893,13.459-10.547,26.36-10.547c12.901,0,18.842,4.655,26.361,10.547c8.246,6.461,17.592,13.785,35.742,13.785
			c18.15,0,27.496-7.323,35.742-13.785c7.52-5.893,13.46-10.547,26.361-10.547c4.2,0,7.604-3.405,7.604-7.604
			C512,378.463,508.596,375.059,504.396,375.059z"/>
	</g>
</g>
<g>
	<g>
		<path d="M504.396,431.921c-18.15,0-27.496,7.323-35.742,13.785c-7.52,5.893-13.46,10.547-26.361,10.547
			c-12.901,0-18.842-4.655-26.361-10.547c-8.246-6.461-17.592-13.785-35.742-13.785c-18.149,0-27.495,7.324-35.741,13.785
			c-7.52,5.893-13.459,10.547-26.359,10.547c-12.9,0-18.84-4.655-26.359-10.547c-8.245-6.461-17.591-13.785-35.74-13.785
			c-18.148,0-27.493,7.324-35.738,13.785c-7.52,5.893-13.458,10.547-26.357,10.547c-12.9,0-18.839-4.655-26.358-10.547
			c-8.245-6.461-17.59-13.785-35.74-13.785c-4.2,0-7.604,3.405-7.604,7.604s3.404,7.604,7.604,7.604
			c12.9,0,18.84,4.655,26.359,10.547c8.245,6.461,17.591,13.785,35.739,13.785c18.148,0,27.493-7.324,35.738-13.785
			c7.52-5.893,13.458-10.547,26.357-10.547c12.9,0,18.84,4.655,26.359,10.547c8.245,6.461,17.59,13.785,35.74,13.785
			c18.149,0,27.494-7.323,35.74-13.785c7.52-5.893,13.459-10.547,26.36-10.547c12.901,0,18.842,4.655,26.361,10.547
			c8.246,6.461,17.592,13.785,35.742,13.785c18.15,0,27.496-7.323,35.742-13.785c7.52-5.893,13.46-10.547,26.361-10.547
			c4.2,0,7.604-3.405,7.604-7.604S508.596,431.921,504.396,431.921z"/>
	</g>
</g>
<g>
	<g>
		<path d="M106.731,447.002c-2.589-3.305-7.367-3.885-10.675-1.295c-7.519,5.893-13.457,10.546-26.356,10.546
			c-12.9,0-18.839-4.655-26.358-10.547c-8.245-6.461-17.589-13.786-35.738-13.786c-4.2,0-7.604,3.405-7.604,7.604
			s3.404,7.604,7.604,7.604c12.899,0,18.838,4.655,26.357,10.547c8.245,6.461,17.589,13.785,35.739,13.785
			c18.148,0,27.493-7.323,35.738-13.784C108.743,455.087,109.323,450.308,106.731,447.002z"/>
	</g>
</g>
<g>
</g>
<g>
</g>
<g>
</g>
<g>
</g>
<g>
</g>
<g>
</g>
<g>
</g>
<g>
</g>
<g>
</g>
<g>
</g>
<g>
</g>
<g>
</g>
<g>
</g>
<g>
</g>
<g>
</g>
</svg>
