<?xml version="1.0"?>
<svg xmlns="http://www.w3.org/2000/svg" width="512" height="512" viewBox="0 0 128 128"><g><path d="M81.425,80.928V54.836a4.58,4.58,0,0,0-1.472-8.921H72.59a4.584,4.584,0,0,0-1.619,8.876,7.1,7.1,0,0,1-6.939,5.645H24.2a7.1,7.1,0,0,1-6.938-5.646,4.584,4.584,0,0,0-1.62-8.875H8.283a4.58,4.58,0,0,0-1.471,8.921V80.928A7.758,7.758,0,0,0,0,88.616v27.738a1.751,1.751,0,0,0,1.75,1.75H8.556a1.751,1.751,0,0,0,1.75-1.75,7.1,7.1,0,0,1,7.087-7.087H70.844a7.094,7.094,0,0,1,7.086,7.087,1.751,1.751,0,0,0,1.75,1.75h6.806a1.75,1.75,0,0,0,1.75-1.75V88.616A7.758,7.758,0,0,0,81.425,80.928ZM72.59,49.415h7.363a1.093,1.093,0,1,1,0,2.185H72.59a1.093,1.093,0,0,1,0-2.185ZM24.2,63.936H64.032A10.6,10.6,0,0,0,74.474,55.1h3.451V80.866H73.858V78.42a9.761,9.761,0,0,0-9.75-9.75H52.118a9.742,9.742,0,0,0-8,4.192,9.741,9.741,0,0,0-8-4.192H24.128a9.761,9.761,0,0,0-9.75,9.75v2.446H10.311V55.1h3.451A10.6,10.6,0,0,0,24.2,63.936Zm-6.326,16.93V78.42a6.257,6.257,0,0,1,6.25-6.25h11.99a6.257,6.257,0,0,1,6.25,6.25v2.446Zm27.99-2.446a6.257,6.257,0,0,1,6.25-6.25h11.99a6.257,6.257,0,0,1,6.25,6.25v2.446H45.868ZM8.283,49.415h7.363a1.093,1.093,0,1,1,0,2.185H8.283a1.093,1.093,0,1,1,0-2.185ZM3.5,88.616a4.255,4.255,0,0,1,4.25-4.25H80.486a4.255,4.255,0,0,1,4.25,4.25v6.94H3.5ZM84.736,114.6h-3.45a10.6,10.6,0,0,0-10.442-8.837H17.393A10.6,10.6,0,0,0,6.951,114.6H3.5V99.056H84.736Z"/><path d="M126.25,80.866H112.656v-6.1h6.814a1.75,1.75,0,0,0,1.712-2.111l-3-14.25a1.75,1.75,0,0,0-1.713-1.389H105.345a1.749,1.749,0,0,0-1.712,1.389l-3,14.25a1.751,1.751,0,0,0,1.713,2.111h6.813v6.1H95.563a1.749,1.749,0,0,0-1.75,1.75v33.738a1.75,1.75,0,0,0,1.75,1.75H103.5a1.751,1.751,0,0,0,1.75-1.75V101.672h11.312v14.682a1.751,1.751,0,0,0,1.75,1.75h7.938a1.751,1.751,0,0,0,1.75-1.75V82.616A1.75,1.75,0,0,0,126.25,80.866ZM106.765,60.518h8.282l2.265,10.75H104.5ZM97.313,84.366H124.5V98.172H97.313ZM101.75,114.6H97.313V101.672h4.437Zm22.75,0h-4.438V101.672H124.5Z"/><path d="M107.469,93.019h6.875a1.75,1.75,0,0,0,0-3.5h-6.875a1.75,1.75,0,0,0,0,3.5Z"/><path d="M44.118,39.271A14.688,14.688,0,1,0,29.431,24.583,14.7,14.7,0,0,0,44.118,39.271Zm0-25.875A11.188,11.188,0,1,1,32.931,24.583,11.2,11.2,0,0,1,44.118,13.4Z"/><path d="M46.357,29.3a1.75,1.75,0,0,0,2.475-2.474l-2.964-2.964V19.646a1.75,1.75,0,0,0-3.5,0v4.937a1.752,1.752,0,0,0,.513,1.238Z"/></g></svg>
