<?xml version="1.0" encoding="utf-8"?>
<!-- Generator: Adobe Illustrator 22.0.0, SVG Export Plug-In . SVG Version: 6.00 Build 0)  -->
<svg version="1.1" id="Слой_1" xmlns="http://www.w3.org/2000/svg" xmlns:xlink="http://www.w3.org/1999/xlink" x="0px" y="0px"
	 viewBox="0 0 283.5 113.4" style="enable-background:new 0 0 283.5 113.4;" xml:space="preserve">
<style type="text/css">
	.st0{fill-rule:evenodd;clip-rule:evenodd;fill:#0075BD;}
	.st1{fill-rule:evenodd;clip-rule:evenodd;fill:#D4101B;}
	.st2{fill-rule:evenodd;clip-rule:evenodd;fill:#F7E716;}
	.st3{fill-rule:evenodd;clip-rule:evenodd;fill:#EE7C00;}
	.st4{fill-rule:evenodd;clip-rule:evenodd;fill:#FFCE00;}
	.st5{fill:#D4101B;}
</style>
<path class="st0" d="M81,41.4v24.3l5.6,4V46.1h8.7v13.5l5.6,4V41.4H81z M234.7,41.4v24c1.9,0,3.7,0,5.6,0c0-2.4,0.4-4.6,1.7-6.6
	c0.8-1.2,1.9-2.3,2.9-3.3c1.3-1.2,2.6-2.4,3.9-3.6l0.2-0.2V52v13.6l5.6,4V41.4c-1.9,0-3.7,0-5.6,0c0,2.1-0.5,4-1.6,5.8
	c-0.8,1.3-1.9,2.4-3,3.4c-1.3,1.2-2.6,2.3-3.9,3.5l-0.2,0.2V54c0-4.2,0-8.4,0-12.6H234.7z M194.6,41.4v4.3h6.2v19.7h5.6V45.7h6.2
	v-4.3H194.6z M175.6,41.4v24h16.7v-4.4h-11.1v-5.7h10.2v-4.3h-10.2v-5.3H192v-4.3H175.6z M148.9,41.4v24h5.5V48.6l6.2,9.2l6.2-9.2
	v12.7l5.5,3.9V41.4h-6l-5.7,8.3l-5.7-8.3H148.9z M124,53.4c0,3.5,0.9,6.9,3.2,9.4c2.2,2.3,5,3.3,8.1,3.3c3,0,5.9-1,8.1-3.3
	c2.3-2.5,3.2-5.9,3.2-9.4c0-3.5-0.9-6.9-3.2-9.4c-2.2-2.3-5-3.3-8.1-3.3c-3,0-5.9,1-8.1,3.3C124.9,46.5,124,49.9,124,53.4z
	 M129.9,53.3c0-1.9,0.2-4,1.1-5.6c1-1.6,2.5-2.5,4.3-2.5c1.8,0,3.3,0.9,4.3,2.5c0.9,1.6,1.1,3.7,1.1,5.6c0,1.9-0.2,4-1.1,5.6
	c-1,1.6-2.5,2.5-4.3,2.5c-1.8,0-3.3-0.9-4.3-2.5C130.1,57.3,129.9,55.1,129.9,53.3z M104,41.4v24.3l5.6,4v-12h2.6
	c2.4,0,5.2-0.2,7.2-1.7c2.1-1.6,2.8-3.8,2.8-6.5c0-2.7-0.7-4.9-2.8-6.5c-2.1-1.5-4.8-1.7-7.2-1.7H104z M109.6,45.5h2.8
	c1,0,2.2,0.1,3.1,0.9c0.9,0.8,1.2,1.9,1.2,3.1c0,1.2-0.3,2.4-1.2,3.1c-0.8,0.7-2,0.9-3.1,0.9h-2.8V45.5z M215.4,41.4v24h16.7v-4.4
	H221v-5.7h10.2v-4.3H221v-5.3h10.8v-4.3H215.4z"/>
<path class="st1" d="M245.2,35.3c-1.9,2.1-1.1,3.7,0.2,4.8c0.6,0.5,1.1,1.3,0.8,2.1c-0.2,0.7-0.8,1.1-1.5,1.1c-1.4,0-2.6-1.6-1.6-3
	c1,0.6,1.4,1.4,1.6,2.3c0.5-1.1,0.5-1.8-0.3-2.6c-0.2-0.2-0.4-0.4-0.6-0.6c-0.5-0.5-0.7-1-0.6-1.8c-1.5,1.5-2,4.3-0.2,5.7
	c1.4,1.1,3.6,0.5,4.2-1.1c0.6-1.4,0.2-2.5-1-3.6C245,37.7,244.6,36.8,245.2,35.3"/>
<path class="st0" d="M66.8,79.1l-12-8.6L51.3,68c-0.9,0.2-1.7,0.5-2.6,0.7c-2.6,0.7-5.1,1.5-7.7,2.2c-2.6,0.7-2,2.5,0.8,2.5l7-0.1
	C40,75.4,37,74.5,37.4,71.5c-2.5-1-6.3-2.6-9.1-3.8c-1.5-0.6-4.4-0.1-2.1,1.7c4.6,3.2,9.2,6.4,13.8,9.7l13.9-2.8l5.4,2.8H66.8z"/>
<path class="st1" d="M41.4,22.2c-9.8,10.7-5.7,19.4,1.1,25c3.3,2.6,5.9,6.5,4.2,11c-1.2,3.4-4.2,5.7-7.9,5.7
	c-7.1,0.1-13.3-8.5-8.1-15.5c5.1,2.9,7.4,7.1,8.2,11.9c2.8-5.6,2.6-9.4-1.8-13.3c-1.1-1-2.2-2-3.2-3.1c-2.6-2.8-3.5-5.3-3.1-9.2
	c-7.8,7.5-10.5,22.2-1.2,29.6c7.1,5.6,18.4,2.7,21.9-5.6c3-7.1,1.2-13-5.4-18.7C40.1,34.6,38.3,30.2,41.4,22.2"/>
<path class="st0" d="M55.9,24.7l-6.8,11c1,0.8,2,1.8,2.9,2.8c0.8-0.9,4.1-4.6,4.4-5c0.4-0.6,4.4-4.7,4.3-4.9
	C60.2,27.2,56.5,26.2,55.9,24.7"/>
<path class="st2" d="M68.3,51.3L68.3,51.3l0.4,0.1l1.1-0.1l0.2,1.5l0.3,0l0.6-1.1l-0.2-1.1c-0.5,0.2-0.8-0.2-1.2-0.3l-0.7,0.3
	L68.3,51.3z"/>
<path class="st3" d="M55.4,44.2c3.7-1.5,7.5-3.2,11.3-4.8l1.8-0.8c-0.5-1.4-2.1-1.9-2.3-3.8l-0.1-0.4l-0.8,0.4l-11.2,6.8
	C54.6,42.4,55.1,43.3,55.4,44.2"/>
<path class="st0" d="M66.8,39.4C63,41,59.1,42.5,55.4,44c0.4,0.9,0.7,1.8,1,2.8c3.9-1.1,8.4-2.4,12.2-3.5
	C67.1,42.1,68.3,41.2,66.8,39.4"/>
<path class="st4" d="M56.9,56.9C61.8,57.7,67.3,59,72,60c-1.6-2.6,0.1-11.2-1.1-14.9c-0.1-0.7-0.1-0.6-0.9-0.4
	c-4.3,1-9.1,2.1-13.4,3.2c0.4,1.6,0.6,3.4,0.6,5.1C57.3,54.3,57.2,55.6,56.9,56.9"/>
<path class="st3" d="M54.1,64.4l9.7,6.3l0.1,0.1l2.3-3.5l-11-5C54.9,63,54.5,63.7,54.1,64.4"/>
<path class="st4" d="M59.5,29.3L51,37.6c0.8,0.8,1.4,1.6,2.1,2.5l10-7.2C63,31.5,60,31,59.5,29.3"/>
<path class="st3" d="M68.3,51.4l-11.1,0.4c0,0.4,0,0.8,0,1.2c0,0.4,0,0.8,0,1.2l12.8,0.9C70.1,53,68.5,53.2,68.3,51.4"/>
<path class="st0" d="M55.9,60.8c1.4,0.6,5.2,2.1,5.7,2.3c0.4,0.2,5.8,2.3,5.8,2.3c-0.1-1.6,1.8-3.5,1-4.4c-0.1,0-2.7-0.6-2.9-0.7
	c-0.9-0.3-1.9-0.5-2.9-0.8c-0.4-0.1-4.7-1.2-5.9-1.5C56.5,59,56.2,59.9,55.9,60.8"/>
<g>
	<path class="st5" d="M92.8,80.6c-1.3,0-2.4-0.4-3.2-1.2c-0.9-0.8-1.3-1.9-1.3-3.1c0-1.3,0.4-2.3,1.3-3.1c0.9-0.8,1.9-1.2,3.2-1.2
		c0.8,0,1.5,0.2,2.2,0.5v1.7c-0.6-0.4-1.4-0.6-2.2-0.6c-0.8,0-1.5,0.3-2,0.8c-0.5,0.5-0.8,1.2-0.8,2s0.3,1.5,0.8,2
		c0.5,0.5,1.2,0.8,2,0.8c0.9,0,1.7-0.2,2.3-0.7V80C94.5,80.4,93.7,80.6,92.8,80.6z"/>
	<path class="st5" d="M98.4,80.5h-1.7v-8.4h7v8.4H102v-6.8h-3.6V80.5z"/>
	<path class="st5" d="M105.2,76.3c0-1.2,0.4-2.3,1.2-3.1c0.8-0.8,1.9-1.3,3.1-1.3c1.2,0,2.3,0.4,3.1,1.3c0.8,0.8,1.2,1.9,1.2,3.1
		c0,1.2-0.4,2.2-1.2,3.1c-0.8,0.8-1.9,1.3-3.1,1.3c-1.3,0-2.3-0.4-3.1-1.3S105.2,77.5,105.2,76.3z M107.7,78.2
		c0.5,0.5,1.1,0.8,1.9,0.8c0.7,0,1.3-0.3,1.8-0.8s0.7-1.2,0.7-2s-0.2-1.4-0.7-2s-1.1-0.8-1.8-0.8c-0.7,0-1.4,0.3-1.9,0.8
		c-0.5,0.5-0.7,1.2-0.7,2S107.2,77.7,107.7,78.2z"/>
	<path class="st5" d="M117.2,80.5h-1.7v-8.4h3.7c0.9,0,1.6,0.2,2.1,0.7c0.5,0.5,0.8,1.1,0.8,1.8c0,0.8-0.3,1.4-0.8,1.8
		c-0.5,0.5-1.2,0.7-2.1,0.7h-1.9V80.5z M117.2,73.6v2.1h1.8c0.4,0,0.7-0.1,1-0.3c0.2-0.2,0.3-0.4,0.3-0.8s-0.1-0.6-0.3-0.8
		c-0.2-0.2-0.6-0.3-1-0.3H117.2z"/>
	<path class="st5" d="M122.7,73.6v-1.5h7v1.5h-2.7v6.8h-1.7v-6.8H122.7z"/>
	<path class="st5" d="M132.5,80.5H131v-8.4h1.7v5.4l4-5.4h1.5v8.4h-1.7V75L132.5,80.5z"/>
	<path class="st5" d="M144.3,80.5h-4.2v-8.4h3.9c0.8,0,1.4,0.2,1.8,0.5c0.5,0.4,0.7,0.9,0.7,1.5c0,0.4-0.1,0.8-0.3,1
		c-0.2,0.3-0.5,0.5-0.8,0.6c0.5,0.1,0.9,0.3,1.2,0.7c0.3,0.4,0.5,0.9,0.5,1.5c0,0.7-0.3,1.3-0.8,1.7
		C145.9,80.2,145.2,80.5,144.3,80.5z M141.9,73.5v1.8h1.9c0.4,0,0.6-0.1,0.8-0.2c0.2-0.2,0.3-0.4,0.3-0.7c0-0.3-0.1-0.5-0.3-0.7
		s-0.5-0.2-0.8-0.2H141.9z M141.9,76.8V79h2.2c0.4,0,0.8-0.1,1-0.3c0.2-0.2,0.4-0.5,0.4-0.8c0-0.4-0.1-0.6-0.4-0.8
		c-0.2-0.2-0.6-0.3-1-0.3H141.9z"/>
	<path class="st5" d="M150.4,80.5h-1.7v-8.4h1.7v3.1h3.8v-3.1h1.7v8.4h-1.7v-3.7h-3.8V80.5z"/>
	<path class="st5" d="M161,80.5h-3.3v-8.4h1.7v2.8h1.6c1,0,1.8,0.3,2.4,0.8c0.6,0.5,0.9,1.2,0.9,2s-0.3,1.5-0.9,2
		C162.8,80.2,162,80.5,161,80.5z M159.5,76.3v2.6h1.5c0.5,0,0.9-0.1,1.2-0.3c0.3-0.2,0.4-0.5,0.4-1c0-0.4-0.1-0.7-0.4-1
		c-0.3-0.2-0.7-0.3-1.2-0.3H159.5z M167,80.5h-1.7v-8.4h1.7V80.5z"/>
	<path class="st5" d="M170.3,80.5h-1.4v-8.4h1.7v5.4l4-5.4h1.5v8.4h-1.7V75L170.3,80.5z M170.2,69.6h1.3c0,0.3,0.1,0.5,0.2,0.6
		s0.4,0.2,0.7,0.2c0.3,0,0.5-0.1,0.7-0.2s0.3-0.4,0.3-0.6h1.3c0,0.6-0.2,1.1-0.6,1.5c-0.4,0.4-0.9,0.6-1.6,0.6s-1.2-0.2-1.6-0.6
		S170.3,70.2,170.2,69.6z"/>
	<path class="st5" d="M182.7,80.5H181v-8.4h1.7v3.3l3.1-3.3h2.1l-3.5,3.8l4.2,4.5h-2.2l-3.6-3.9V80.5z"/>
	<path class="st5" d="M188.3,76.3c0-1.2,0.4-2.3,1.2-3.1c0.8-0.8,1.9-1.3,3.1-1.3c1.2,0,2.3,0.4,3.1,1.3c0.8,0.8,1.2,1.9,1.2,3.1
		c0,1.2-0.4,2.2-1.2,3.1c-0.8,0.8-1.9,1.3-3.1,1.3c-1.3,0-2.3-0.4-3.1-1.3C188.7,78.5,188.3,77.5,188.3,76.3z M190.7,78.2
		c0.5,0.5,1.1,0.8,1.9,0.8c0.7,0,1.3-0.3,1.8-0.8c0.5-0.5,0.7-1.2,0.7-2s-0.2-1.4-0.7-2c-0.5-0.5-1.1-0.8-1.8-0.8
		c-0.7,0-1.4,0.3-1.9,0.8c-0.5,0.5-0.7,1.2-0.7,2S190.3,77.7,190.7,78.2z"/>
	<path class="st5" d="M200.2,80.5h-1.7v-8.4h1.7l2.4,3.5l2.4-3.5h1.7v8.4H205v-5.7l-1.9,2.7h-1l-2-2.7V80.5z"/>
	<path class="st5" d="M210.3,80.5h-1.7v-8.4h7v8.4h-1.7v-6.8h-3.6V80.5z"/>
	<path class="st5" d="M216.6,80.4v-1.6c0.2,0.1,0.4,0.1,0.6,0.1c0.4,0,0.7-0.3,0.9-0.9c0.2-0.6,0.3-1.8,0.3-3.5l0-2.4h5.9v8.4h-1.7
		v-6.8h-2.5l0,1.7c-0.1,2-0.3,3.3-0.7,4c-0.4,0.7-1.1,1.1-2.1,1.1C217,80.5,216.8,80.5,216.6,80.4z"/>
	<path class="st5" d="M232.4,80.5h-6.3v-8.4h6.1v1.5h-4.4v1.6h3.6v1.5h-3.6v2.1h4.5V80.5z"/>
	<path class="st5" d="M235.5,80.5h-1.7v-8.4h1.7v3.3l3.1-3.3h2.1l-3.5,3.8l4.2,4.5h-2.2l-3.6-3.9V80.5z"/>
	<path class="st5" d="M245.6,80.6c-1.3,0-2.4-0.4-3.2-1.2c-0.9-0.8-1.3-1.9-1.3-3.1c0-1.3,0.4-2.3,1.3-3.1c0.9-0.8,1.9-1.2,3.2-1.2
		c0.8,0,1.5,0.2,2.2,0.5v1.7c-0.6-0.4-1.4-0.6-2.2-0.6c-0.8,0-1.5,0.3-2,0.8c-0.5,0.5-0.8,1.2-0.8,2s0.3,1.5,0.8,2
		c0.5,0.5,1.2,0.8,2,0.8c0.9,0,1.7-0.2,2.3-0.7V80C247.3,80.4,246.5,80.6,245.6,80.6z"/>
</g>
</svg>
