<?xml version="1.0" encoding="utf-8"?>
<!-- Generator: Adobe Illustrator 22.0.0, SVG Export Plug-In . SVG Version: 6.00 Build 0)  -->
<svg version="1.1" id="Layer_1" xmlns="http://www.w3.org/2000/svg" xmlns:xlink="http://www.w3.org/1999/xlink" x="0px" y="0px"
	 viewBox="0 0 1500 1500" style="enable-background:new 0 0 1500 1500;" xml:space="preserve">
<style type="text/css">
	.st0{display:none;fill:#00AF99;}
	.st1{display:none;}
	.st2{display:inline;fill:#FFFFFF;}
	.st3{font-family:'GildaDisplay-Regular';}
	.st4{font-size:296.5859px;}
	.st5{font-size:462.3251px;}
	.st6{font-family:'ProximaNova-Light';}
	.st7{font-size:83.7419px;}
	.st8{display:inline;}
	.st9{fill:#FFCC00;}
	.st10{fill:#171717;}
</style>
<rect x="0.6" y="0" class="st0" width="1500" height="1500"/>
<g class="st1">
	<text transform="matrix(0.95 0 0 1 29.5547 1007.4122)" class="st2 st3 st4">Rinn Rise</text>
	<text transform="matrix(0.95 0 0 1 376.9692 659.9718)" class="st2 st3 st5">R</text>
	<text transform="matrix(0.95 0 0 1 801.168 659.9718)" class="st2 st3 st5">R</text>
	<rect x="747.7" y="278.7" class="st2" width="5.7" height="427.4"/>
	<text transform="matrix(0.95 0 0 1 38.9353 1129.8263)" class="st2 st6 st7">Resort Hotel </text>
	<g class="st8">
		<path class="st9" d="M1237.7,1093.5l-17.7-2.7l-7.9-16.9c-0.6-1.3-2.7-1.3-3.3,0l-7.9,16.9l-17.7,2.7c-1.4,0.2-2,2-1,3l12.9,13.2
			l-3,18.6c-0.2,1.5,1.3,2.6,2.7,1.9l15.8-8.7l15.8,8.7c1.3,0.7,2.9-0.4,2.7-1.9l-3-18.6l12.9-13.2
			C1239.8,1095.5,1239.2,1093.7,1237.7,1093.5L1237.7,1093.5z"/>
		<path class="st9" d="M1306.2,1093.5l-17.7-2.7l-7.9-16.9c-0.6-1.3-2.7-1.3-3.3,0l-7.9,16.9l-17.7,2.7c-1.4,0.2-2,2-1,3l12.9,13.2
			l-3,18.6c-0.2,1.5,1.3,2.6,2.7,1.9l15.8-8.7l15.8,8.7c1.3,0.7,2.9-0.4,2.7-1.9l-3-18.6l12.9-13.2
			C1308.3,1095.5,1307.7,1093.7,1306.2,1093.5L1306.2,1093.5z"/>
		<path class="st9" d="M1375.5,1093.5l-17.7-2.7l-7.9-16.9c-0.6-1.3-2.7-1.3-3.3,0l-7.9,16.9l-17.7,2.7c-1.4,0.2-2,2-1,3l12.9,13.2
			l-3,18.6c-0.2,1.5,1.3,2.6,2.7,1.9l15.8-8.7l15.8,8.7c1.3,0.7,2.9-0.4,2.7-1.9l-3-18.6l12.9-13.2
			C1377.5,1095.5,1376.9,1093.7,1375.5,1093.5L1375.5,1093.5z"/>
		<path class="st9" d="M1443.7,1093.5l-17.7-2.7l-7.9-16.9c-0.6-1.3-2.7-1.3-3.3,0l-7.9,16.9l-17.7,2.7c-1.4,0.2-2,2-1,3l12.9,13.2
			l-3,18.6c-0.2,1.5,1.3,2.6,2.7,1.9l15.8-8.7l15.8,8.7c1.3,0.7,2.9-0.4,2.7-1.9l-3-18.6l12.9-13.2
			C1445.8,1095.5,1445.2,1093.7,1443.7,1093.5L1443.7,1093.5z"/>
	</g>
</g>
<text transform="matrix(0.95 0 0 1 29.5547 1008.4122)" class="st10 st3 st4">RINN RISE</text>
<text transform="matrix(0.95 0 0 1 376.9692 660.9718)" class="st10 st3 st5">R</text>
<text transform="matrix(0.95 0 0 1 801.168 660.9718)" class="st10 st3 st5">R</text>
<rect x="747.7" y="279.7" class="st10" width="5.7" height="427.4"/>
<text transform="matrix(0.95 0 0 1 38.9353 1130.8263)" class="st10 st6 st7">RESORT HOTEL</text>
<g>
	<path class="st9" d="M1237.7,1094.5l-17.7-2.7l-7.9-16.9c-0.6-1.3-2.7-1.3-3.3,0l-7.9,16.9l-17.7,2.7c-1.4,0.2-2,2-1,3l12.9,13.2
		l-3,18.6c-0.2,1.5,1.3,2.6,2.7,1.9l15.8-8.7l15.8,8.7c1.3,0.7,2.9-0.4,2.7-1.9l-3-18.6l12.9-13.2
		C1239.8,1096.5,1239.2,1094.7,1237.7,1094.5L1237.7,1094.5z"/>
	<path class="st9" d="M1306.2,1094.5l-17.7-2.7l-7.9-16.9c-0.6-1.3-2.7-1.3-3.3,0l-7.9,16.9l-17.7,2.7c-1.4,0.2-2,2-1,3l12.9,13.2
		l-3,18.6c-0.2,1.5,1.3,2.6,2.7,1.9l15.8-8.7l15.8,8.7c1.3,0.7,2.9-0.4,2.7-1.9l-3-18.6l12.9-13.2
		C1308.3,1096.5,1307.7,1094.7,1306.2,1094.5L1306.2,1094.5z"/>
	<path class="st9" d="M1375.5,1094.5l-17.7-2.7l-7.9-16.9c-0.6-1.3-2.7-1.3-3.3,0l-7.9,16.9l-17.7,2.7c-1.4,0.2-2,2-1,3l12.9,13.2
		l-3,18.6c-0.2,1.5,1.3,2.6,2.7,1.9l15.8-8.7l15.8,8.7c1.3,0.7,2.9-0.4,2.7-1.9l-3-18.6l12.9-13.2
		C1377.5,1096.5,1376.9,1094.7,1375.5,1094.5L1375.5,1094.5z"/>
	<path class="st9" d="M1443.7,1094.5l-17.7-2.7l-7.9-16.9c-0.6-1.3-2.7-1.3-3.3,0l-7.9,16.9l-17.7,2.7c-1.4,0.2-2,2-1,3l12.9,13.2
		l-3,18.6c-0.2,1.5,1.3,2.6,2.7,1.9l15.8-8.7l15.8,8.7c1.3,0.7,2.9-0.4,2.7-1.9l-3-18.6l12.9-13.2
		C1445.8,1096.5,1445.2,1094.7,1443.7,1094.5L1443.7,1094.5z"/>
</g>
</svg>
