<?xml version="1.0" encoding="utf-8"?>
<!-- Generator: Adobe Illustrator 22.0.0, SVG Export Plug-In . SVG Version: 6.00 Build 0)  -->
<svg version="1.1" id="Layer_1" xmlns="http://www.w3.org/2000/svg" xmlns:xlink="http://www.w3.org/1999/xlink" x="0px" y="0px"
	 viewBox="0 0 1500 1500" style="enable-background:new 0 0 1500 1500;" xml:space="preserve">
<style type="text/css">
	.st0{display:none;fill:#00AF99;}
	.st1{display:none;}
	.st2{display:inline;fill:#FFFFFF;}
	.st3{font-family:'GildaDisplay-Regular';}
	.st4{font-size:296.5859px;}
	.st5{font-size:462.3251px;}
	.st6{font-family:'ProximaNova-Light';}
	.st7{font-size:83.7419px;}
	.st8{display:inline;}
	.st9{fill:#FFCC00;}
	.st10{fill:#171717;}
</style>
<rect x="0.56" class="st0" width="1500" height="1500"/>
<g class="st1">
	<text transform="matrix(0.95 0 0 1 29.5547 1007.4121)" class="st2 st3 st4">Rinn Rise</text>
	<text transform="matrix(0.95 0 0 1 376.9692 659.9717)" class="st2 st3 st5">R</text>
	<text transform="matrix(0.95 0 0 1 801.168 659.9717)" class="st2 st3 st5">R</text>
	<rect x="747.69" y="278.74" class="st2" width="5.74" height="427.43"/>
	<text transform="matrix(0.95 0 0 1 38.9355 1129.8262)" class="st2 st6 st7">Resort Hotel </text>
	<g class="st8">
		<path class="st9" d="M1237.72,1093.51l-17.7-2.7l-7.93-16.9c-0.59-1.26-2.66-1.26-3.26,0l-7.93,16.9l-17.7,2.7
			c-1.45,0.22-2.03,1.99-1.01,3.03l12.86,13.18l-3.04,18.63c-0.24,1.48,1.34,2.59,2.65,1.86l15.81-8.74l15.81,8.74
			c1.3,0.72,2.89-0.37,2.65-1.86l-3.04-18.63l12.86-13.18C1239.75,1095.5,1239.17,1093.73,1237.72,1093.51L1237.72,1093.51z"/>
		<path class="st9" d="M1306.22,1093.51l-17.7-2.7l-7.93-16.9c-0.59-1.26-2.66-1.26-3.26,0l-7.93,16.9l-17.7,2.7
			c-1.45,0.22-2.03,1.99-1.01,3.03l12.86,13.18l-3.04,18.63c-0.24,1.48,1.34,2.59,2.65,1.86l15.81-8.74l15.81,8.74
			c1.3,0.72,2.89-0.37,2.65-1.86l-3.04-18.63l12.86-13.18C1308.26,1095.5,1307.68,1093.73,1306.22,1093.51L1306.22,1093.51z"/>
		<path class="st9" d="M1375.48,1093.51l-17.7-2.7l-7.93-16.9c-0.59-1.26-2.66-1.26-3.26,0l-7.93,16.9l-17.7,2.7
			c-1.45,0.22-2.03,1.99-1.01,3.03l12.86,13.18l-3.04,18.63c-0.24,1.48,1.34,2.59,2.65,1.86l15.81-8.74l15.81,8.74
			c1.3,0.72,2.89-0.37,2.65-1.86l-3.04-18.63l12.86-13.18C1377.51,1095.5,1376.93,1093.73,1375.48,1093.51L1375.48,1093.51z"/>
		<path class="st9" d="M1443.73,1093.51l-17.7-2.7l-7.93-16.9c-0.59-1.26-2.66-1.26-3.26,0l-7.93,16.9l-17.7,2.7
			c-1.45,0.22-2.03,1.99-1.01,3.03l12.86,13.18l-3.04,18.63c-0.24,1.48,1.34,2.59,2.65,1.86l15.81-8.74l15.81,8.74
			c1.3,0.72,2.89-0.37,2.65-1.86l-3.04-18.63l12.86-13.18C1445.76,1095.5,1445.18,1093.73,1443.73,1093.51L1443.73,1093.51z"/>
	</g>
</g>
<text transform="matrix(0.95 0 0 1 29.5547 1008.4121)" class="st10 st3 st4">Rinn Rise</text>
<text transform="matrix(0.95 0 0 1 376.9692 660.9717)" class="st10 st3 st5">R</text>
<text transform="matrix(0.95 0 0 1 801.168 660.9717)" class="st10 st3 st5">R</text>
<rect x="747.69" y="279.74" class="st10" width="5.74" height="427.43"/>
<text transform="matrix(0.95 0 0 1 38.9355 1130.8262)" class="st10 st6 st7">Resort Hotel </text>
<g>
	<path class="st9" d="M1237.72,1094.51l-17.7-2.7l-7.93-16.9c-0.59-1.26-2.66-1.26-3.26,0l-7.93,16.9l-17.7,2.7
		c-1.45,0.22-2.03,1.99-1.01,3.03l12.86,13.18l-3.04,18.63c-0.24,1.48,1.34,2.59,2.65,1.86l15.81-8.74l15.81,8.74
		c1.3,0.72,2.89-0.37,2.65-1.86l-3.04-18.63l12.86-13.18C1239.75,1096.5,1239.17,1094.73,1237.72,1094.51L1237.72,1094.51z"/>
	<path class="st9" d="M1306.22,1094.51l-17.7-2.7l-7.93-16.9c-0.59-1.26-2.66-1.26-3.26,0l-7.93,16.9l-17.7,2.7
		c-1.45,0.22-2.03,1.99-1.01,3.03l12.86,13.18l-3.04,18.63c-0.24,1.48,1.34,2.59,2.65,1.86l15.81-8.74l15.81,8.74
		c1.3,0.72,2.89-0.37,2.65-1.86l-3.04-18.63l12.86-13.18C1308.26,1096.5,1307.68,1094.73,1306.22,1094.51L1306.22,1094.51z"/>
	<path class="st9" d="M1375.48,1094.51l-17.7-2.7l-7.93-16.9c-0.59-1.26-2.66-1.26-3.26,0l-7.93,16.9l-17.7,2.7
		c-1.45,0.22-2.03,1.99-1.01,3.03l12.86,13.18l-3.04,18.63c-0.24,1.48,1.34,2.59,2.65,1.86l15.81-8.74l15.81,8.74
		c1.3,0.72,2.89-0.37,2.65-1.86l-3.04-18.63l12.86-13.18C1377.51,1096.5,1376.93,1094.73,1375.48,1094.51L1375.48,1094.51z"/>
	<path class="st9" d="M1443.73,1094.51l-17.7-2.7l-7.93-16.9c-0.59-1.26-2.66-1.26-3.26,0l-7.93,16.9l-17.7,2.7
		c-1.45,0.22-2.03,1.99-1.01,3.03l12.86,13.18l-3.04,18.63c-0.24,1.48,1.34,2.59,2.65,1.86l15.81-8.74l15.81,8.74
		c1.3,0.72,2.89-0.37,2.65-1.86l-3.04-18.63l12.86-13.18C1445.76,1096.5,1445.18,1094.73,1443.73,1094.51L1443.73,1094.51z"/>
</g>
</svg>
