<?xml version="1.0" encoding="UTF-8"?>
<svg width="1500px" height="1500px" viewBox="0 0 1500 1500" xmlns="http://www.w3.org/2000/svg" xmlns:xlink="http://www.w3.org/1999/xlink" version="1.1">
 <!-- Generated by Pixelmator Pro 2.0.1 -->
 <g id="New-Group">
  <g id="group">
   <path id="Путь" d="M187.62 1008.41 C182.92 1008.41 178.27 1005.89 173.67 1000.85 169.07 995.81 164.94 989.53 161.27 982.02 157.61 974.51 153.33 966.35 148.45 957.55 143.56 948.75 138.68 940.5 133.8 932.78 128.91 925.07 122.71 918.54 115.2 913.21 107.69 907.87 99.7 905.01 91.25 904.61 L91.25 941.39 C91.25 962.74 91.86 977.23 93.08 984.84 94.3 992.45 96.04 997.25 98.29 999.22 102.8 1002.98 109.75 1004.86 119.14 1004.86 L119.7 1008.42 44.21 1008.42 44.77 1004.86 C53.97 1004.86 60.73 1003.08 65.06 999.52 68.63 996.55 70.69 986.87 71.26 970.45 71.63 963.92 71.82 954.24 71.82 941.38 L71.82 866.34 C71.82 844.39 71.26 829.86 70.13 822.74 69 815.62 67.31 811.17 65.06 809.39 60.74 806.03 53.97 804.35 44.77 804.35 L44.21 800.79 109.58 800.79 C156.91 800.79 180.58 817.6 180.58 851.21 180.58 865.65 175.74 877.75 166.07 887.54 156.39 897.33 144.7 903.01 130.99 904.59 144.7 913.09 157.38 928.72 169.03 951.45 173.54 960.35 178.33 968.85 183.4 976.96 194.48 995.55 208.76 1004.84 226.23 1004.84 L226.79 1008.4 187.62 1008.4 Z M91.26 807.62 L91.26 898.67 109.01 898.67 C123.28 898.67 135.12 894.81 144.51 887.1 153.9 879.39 158.6 867.92 158.6 852.7 158.6 822.65 142.26 807.62 109.57 807.62 Z" fill="#171717" fill-opacity="1" stroke="none"/>
   <path id="Путь-1" d="M274.68 867.83 L274.68 941.38 C274.68 962.54 275.29 976.97 276.51 984.68 277.73 992.39 279.47 997.24 281.72 999.21 286.04 1002.97 292.89 1004.85 302.29 1004.85 L302.85 1008.41 226.78 1008.41 227.34 1004.85 C232.03 1004.85 235.7 1004.65 238.33 1004.26 240.96 1003.87 243.45 1002.78 245.8 1001 248.15 999.22 249.84 997.2 250.87 994.92 251.9 992.65 252.79 988.84 253.55 983.5 254.49 976.58 254.96 962.54 254.96 941.38 L254.96 867.83 C254.96 847.27 254.4 832.94 253.27 824.83 252.14 816.73 250.45 811.68 248.2 809.7 243.69 805.95 236.74 804.07 227.35 804.07 L226.79 800.81 302.86 800.81 302.3 804.07 C292.9 804.07 286.05 805.95 281.73 809.7 277.03 813.85 274.68 833.23 274.68 867.83 Z" fill="#171717" fill-opacity="1" stroke="none"/>
   <path id="Путь-2" d="M507.69 867.53 L507.69 1009.89 498.96 1009.89 366.25 833.43 366.25 940.79 C366.25 960.56 367.1 974.8 368.79 983.5 370.48 992.2 373.3 997.94 377.24 1000.7 381.18 1003.47 387.66 1004.85 396.68 1004.85 L397.24 1008.41 327.93 1008.41 328.49 1004.85 C337.51 1004.85 343.99 1003.47 347.93 1000.7 351.87 997.93 354.74 992.2 356.52 983.5 358.3 974.8 359.2 960.57 359.2 940.79 L359.2 867.53 C359.2 847.76 358.31 833.57 356.52 824.97 354.73 816.37 351.92 810.73 348.07 808.06 344.22 805.39 337.69 804.06 328.49 804.06 L327.93 800.8 366.25 800.8 500.65 977.27 500.65 867.53 C500.65 847.95 499.76 833.82 497.97 825.12 496.18 816.42 493.32 810.74 489.38 808.07 485.44 805.4 478.86 804.07 469.66 804.07 L469.1 800.81 538.98 800.81 538.42 804.07 C529.21 804.07 522.64 805.4 518.7 808.07 514.76 810.74 511.94 816.43 510.25 825.12 508.54 833.83 507.69 847.96 507.69 867.53 Z" fill="#171717" fill-opacity="1" stroke="none"/>
   <path id="Путь-3" d="M740.7 867.53 L740.7 1009.89 731.97 1009.89 599.26 833.43 599.26 940.79 C599.26 960.56 600.1 974.8 601.8 983.5 603.49 992.2 606.31 997.94 610.25 1000.7 614.19 1003.47 620.67 1004.85 629.69 1004.85 L630.25 1008.41 560.94 1008.41 561.5 1004.85 C570.52 1004.85 577 1003.47 580.94 1000.7 584.88 997.93 587.75 992.2 589.53 983.5 591.31 974.8 592.21 960.57 592.21 940.79 L592.21 867.53 C592.21 847.76 591.32 833.57 589.53 824.97 587.74 816.37 584.92 810.73 581.08 808.06 577.23 805.39 570.7 804.06 561.5 804.06 L560.94 800.8 599.26 800.8 733.66 977.27 733.66 867.53 C733.66 847.95 732.77 833.82 730.98 825.12 729.19 816.42 726.33 810.74 722.39 808.07 718.45 805.4 711.87 804.07 702.67 804.07 L702.11 800.81 771.99 800.81 771.43 804.07 C762.22 804.07 755.65 805.4 751.71 808.07 747.77 810.74 744.95 816.43 743.26 825.12 741.55 833.83 740.7 847.96 740.7 867.53 Z" fill="#171717" fill-opacity="1" stroke="none"/>
   <path id="Путь-4" d="M1011.47 1008.41 C1006.77 1008.41 1002.12 1005.89 997.52 1000.85 992.92 995.81 988.79 989.53 985.12 982.02 981.46 974.51 977.18 966.35 972.3 957.55 967.41 948.75 962.53 940.5 957.65 932.78 952.76 925.07 946.57 918.54 939.05 913.21 931.53 907.87 923.55 905.01 915.1 904.61 L915.1 941.39 C915.1 962.74 915.71 977.23 916.93 984.84 918.15 992.45 919.89 997.25 922.14 999.22 926.65 1002.98 933.6 1004.86 942.99 1004.86 L943.55 1008.42 868.04 1008.42 868.6 1004.86 C877.8 1004.86 884.56 1003.08 888.89 999.52 892.46 996.55 894.53 986.87 895.09 970.45 895.46 963.92 895.65 954.24 895.65 941.38 L895.65 866.34 C895.65 844.39 895.09 829.86 893.96 822.74 892.83 815.62 891.14 811.17 888.89 809.39 884.57 806.03 877.81 804.35 868.6 804.35 L868.04 800.79 933.41 800.79 C980.74 800.79 1004.41 817.6 1004.41 851.21 1004.41 865.65 999.57 877.75 989.9 887.54 980.22 897.33 968.53 903.01 954.82 904.59 968.53 913.09 981.21 928.72 992.86 951.45 997.37 960.35 1002.16 968.85 1007.23 976.96 1018.31 995.55 1032.59 1004.84 1050.06 1004.84 L1050.62 1008.4 1011.47 1008.4 Z M915.11 807.62 L915.11 898.67 932.86 898.67 C947.13 898.67 958.97 894.81 968.36 887.1 977.75 879.39 982.45 867.92 982.45 852.7 982.45 822.65 966.11 807.62 933.42 807.62 Z" fill="#171717" fill-opacity="1" stroke="none"/>
   <path id="Путь-5" d="M1098.53 867.83 L1098.53 941.38 C1098.53 962.54 1099.14 976.97 1100.36 984.68 1101.58 992.39 1103.32 997.24 1105.57 999.21 1109.89 1002.97 1116.74 1004.85 1126.14 1004.85 L1126.7 1008.41 1050.63 1008.41 1051.19 1004.85 C1055.88 1004.85 1059.55 1004.65 1062.18 1004.26 1064.81 1003.87 1067.3 1002.78 1069.65 1001 1072 999.22 1073.69 997.2 1074.72 994.92 1075.75 992.65 1076.64 988.84 1077.4 983.5 1078.34 976.58 1078.81 962.54 1078.81 941.38 L1078.81 867.83 C1078.81 847.27 1078.25 832.94 1077.12 824.83 1075.99 816.73 1074.3 811.68 1072.05 809.7 1067.54 805.95 1060.59 804.07 1051.2 804.07 L1050.64 800.81 1126.71 800.81 1126.15 804.07 C1116.76 804.07 1109.9 805.95 1105.58 809.7 1100.88 813.85 1098.53 833.23 1098.53 867.83 Z" fill="#171717" fill-opacity="1" stroke="none"/>
   <path id="Путь-6" d="M1177.28 989.43 C1186.2 999.51 1197.14 1004.56 1210.11 1004.56 1223.07 1004.56 1233.68 1001.25 1241.95 994.62 1250.21 988 1254.35 977.57 1254.35 963.33 1254.35 950.48 1247.87 939.01 1234.91 928.93 1229.28 924.58 1222.98 920.28 1216.03 916.03 1209.08 911.78 1202.13 907.38 1195.18 902.83 1188.23 898.28 1181.94 893.54 1176.3 888.59 1163.34 877.13 1156.86 863.73 1156.86 848.4 1156.86 833.08 1162.16 820.87 1172.78 811.77 1183.39 802.68 1197.48 798.13 1215.04 798.13 1232.6 798.13 1248.89 802.18 1263.92 810.29 1263.92 820.18 1262.51 837.18 1259.69 861.3 L1255.46 860.11 C1255.46 841.53 1251.14 827.63 1242.5 818.44 1233.86 809.25 1223.95 804.65 1212.78 804.65 1201.6 804.65 1192.63 808.06 1185.87 814.88 1179.11 821.7 1175.73 829.76 1175.73 839.05 1175.73 848.35 1178.13 856.3 1182.92 862.93 1187.71 869.56 1193.72 875.04 1200.95 879.39 1208.18 883.74 1216.02 888.54 1224.48 893.77 1232.93 899.01 1240.77 904.15 1248.01 909.19 1255.24 914.23 1261.25 920.81 1266.04 928.91 1270.83 937.02 1273.22 946.11 1273.22 956.2 1273.22 974.39 1267.06 988.13 1254.76 997.43 1242.46 1006.73 1227.66 1011.37 1210.38 1011.37 1200.8 1011.37 1190.98 1009.79 1180.94 1006.62 1170.89 1003.46 1162.67 998.81 1156.29 992.68 1156.29 980.03 1157.42 964.01 1159.67 944.63 L1163.9 945.52 C1163.9 964.72 1168.36 979.35 1177.28 989.43 Z" fill="#171717" fill-opacity="1" stroke="none"/>
   <path id="Путь-7" d="M1444.81 1008.41 L1302.81 1008.41 1303.37 1004.85 C1312.76 1004.85 1319.62 1002.97 1323.94 999.21 1328.63 995.06 1330.98 975.78 1330.98 941.38 L1330.98 867.83 C1330.98 846.68 1330.37 832.19 1329.15 824.38 1327.93 816.57 1326.19 811.68 1323.94 809.7 1319.62 805.95 1312.76 804.07 1303.37 804.07 L1302.81 800.81 1434.39 800.81 1434.39 843.52 1431.01 842.93 C1431.01 829.69 1424.39 820.49 1411.15 815.35 1397.91 810.21 1377.67 807.64 1350.43 807.64 L1350.43 901.06 C1368.46 901.06 1381.42 900.07 1389.31 898.09 1397.2 896.12 1402.27 893.1 1404.52 889.04 1406.77 884.99 1407.9 878.21 1407.9 868.72 L1411 868.13 1411 940.2 1407.9 939.61 C1407.9 929.92 1406.77 923.1 1404.52 919.15 1402.27 915.2 1397.19 912.28 1389.31 910.4 1381.42 908.52 1368.46 907.58 1350.43 907.58 L1350.43 945.84 C1350.43 966.8 1351.13 980.74 1352.54 987.66 1353.95 994.58 1357.09 999.23 1361.98 1001.6 1414.95 1001.6 1441.44 989.74 1441.44 966.01 L1444.82 965.42 1444.82 1008.41 Z" fill="#171717" fill-opacity="1" stroke="none"/>
  </g>
  <g id="group-1">
   <path id="Путь-8" d="M623.37 660.97 C616.05 660.97 608.8 657.04 601.63 649.18 594.45 641.32 588.01 631.54 582.3 619.82 576.59 608.11 569.93 595.4 562.32 581.68 554.7 567.97 547.09 555.1 539.48 543.08 531.86 531.06 522.2 520.89 510.49 512.57 498.78 504.25 486.33 499.78 473.16 499.16 L473.16 556.49 C473.16 589.78 474.11 612.36 476.02 624.22 477.92 636.09 480.63 643.57 484.15 646.64 491.18 652.5 502.01 655.42 516.65 655.42 L517.53 660.97 399.81 660.97 400.69 655.42 C415.03 655.42 425.57 652.65 432.31 647.1 437.87 642.48 441.09 627.38 441.97 601.79 442.55 591.62 442.85 576.52 442.85 556.48 L442.85 439.52 C442.85 405.31 441.97 382.65 440.22 371.56 438.46 360.46 435.83 353.53 432.31 350.76 425.57 345.52 415.03 342.9 400.69 342.9 L399.81 337.35 501.71 337.35 C575.5 337.35 612.39 363.55 612.39 415.95 612.39 438.45 604.85 457.33 589.77 472.58 574.69 487.84 556.46 496.7 535.09 499.16 556.46 512.42 576.22 536.77 594.38 572.21 601.41 586.08 608.87 599.34 616.78 611.97 634.05 640.94 656.31 655.43 683.54 655.43 L684.42 660.98 623.37 660.98 Z M473.16 347.98 L473.16 489.91 500.83 489.91 C523.08 489.91 541.53 483.9 556.17 471.88 570.81 459.86 578.13 441.99 578.13 418.25 578.13 371.4 552.66 347.98 501.71 347.98 Z" fill="#171717" fill-opacity="1" stroke="none"/>
  </g>
  <g id="group-2">
   <path id="Путь-9" d="M1047.56 660.97 C1040.24 660.97 1032.99 657.04 1025.82 649.18 1018.64 641.32 1012.2 631.54 1006.49 619.82 1000.78 608.11 994.12 595.4 986.51 581.68 978.89 567.97 971.28 555.1 963.67 543.08 956.05 531.06 946.39 520.89 934.68 512.57 922.97 504.25 910.52 499.78 897.35 499.16 L897.35 556.49 C897.35 589.78 898.3 612.36 900.21 624.22 902.11 636.09 904.82 643.57 908.34 646.64 915.37 652.5 926.2 655.42 940.84 655.42 L941.72 660.97 824.01 660.97 824.89 655.42 C839.23 655.42 849.77 652.65 856.51 647.1 862.07 642.48 865.29 627.38 866.17 601.79 866.75 591.62 867.05 576.52 867.05 556.48 L867.05 439.52 C867.05 405.31 866.17 382.65 864.42 371.56 862.67 360.47 860.03 353.53 856.51 350.76 849.77 345.52 839.23 342.9 824.89 342.9 L824.01 337.35 925.91 337.35 C999.7 337.35 1036.59 363.55 1036.59 415.95 1036.59 438.45 1029.05 457.33 1013.97 472.58 998.89 487.84 980.66 496.7 959.29 499.16 980.66 512.42 1000.42 536.77 1018.58 572.21 1025.61 586.08 1033.07 599.34 1040.98 611.97 1058.25 640.94 1080.51 655.43 1107.74 655.43 L1108.62 660.98 1047.56 660.98 Z M897.35 347.98 L897.35 489.91 925.02 489.91 C947.27 489.91 965.72 483.9 980.36 471.88 995 459.86 1002.32 441.99 1002.32 418.25 1002.32 371.4 976.85 347.98 925.9 347.98 Z" fill="#171717" fill-opacity="1" stroke="none"/>
  </g>
  <path id="Путь-10" d="M747.69 279.74 L753.43 279.74 753.43 707.17 747.69 707.17 Z" fill="#171717" fill-opacity="1" stroke="none"/>
  <g id="group-3">
   <path id="Путь-11" d="M82.13 1130.83 L76.64 1130.83 61.76 1107.72 50.07 1107.72 50.07 1130.83 45.54 1130.83 45.54 1074.97 65.35 1074.97 C70.02 1074.97 73.87 1076.45 76.93 1079.41 79.98 1082.37 81.5 1086.33 81.5 1091.3 81.5 1096.16 80.08 1100.01 77.24 1102.86 74.4 1105.71 70.92 1107.21 66.78 1107.38 Z M64.95 1103.36 C68.45 1103.36 71.29 1102.23 73.46 1099.97 75.63 1097.71 76.72 1094.82 76.72 1091.3 76.72 1087.78 75.63 1084.91 73.46 1082.67 71.28 1080.44 68.45 1079.32 64.95 1079.32 L50.07 1079.32 50.07 1103.35 64.95 1103.35 Z" fill="#171717" fill-opacity="1" stroke="none"/>
   <path id="Путь-12" d="M126.45 1130.83 L92.79 1130.83 92.79 1074.97 126.44 1074.97 126.44 1079.32 97.33 1079.32 97.33 1100 125.89 1100 125.89 1104.35 97.33 1104.35 97.33 1126.46 126.45 1126.46 Z" fill="#171717" fill-opacity="1" stroke="none"/>
   <path id="Путь-13" d="M154.13 1131.83 C145.8 1131.83 139.33 1128.87 134.72 1122.95 L137.66 1119.35 C142.06 1124.77 147.58 1127.47 154.21 1127.47 159.14 1127.47 162.71 1126.34 164.91 1124.08 167.11 1121.82 168.21 1119.24 168.21 1116.33 168.21 1114.1 167.63 1112.21 166.46 1110.68 165.29 1109.14 163.77 1107.96 161.89 1107.12 160.01 1106.28 157.94 1105.53 155.68 1104.86 153.43 1104.19 151.17 1103.48 148.92 1102.72 146.67 1101.97 144.6 1101.07 142.71 1100.04 140.83 1099.01 139.3 1097.56 138.14 1095.69 136.97 1093.82 136.39 1091.57 136.39 1088.95 136.39 1084.48 138.06 1080.88 141.4 1078.15 144.74 1075.42 148.88 1074.05 153.81 1074.05 161.39 1074.05 167.39 1076.68 171.79 1081.92 L168.77 1085.44 C165.06 1080.75 159.99 1078.4 153.58 1078.4 150.03 1078.4 147.07 1079.36 144.71 1081.29 142.35 1083.22 141.17 1085.69 141.17 1088.7 141.17 1090.6 141.75 1092.23 142.92 1093.6 144.09 1094.97 145.61 1096.03 147.49 1096.78 149.37 1097.53 151.44 1098.23 153.7 1098.87 155.95 1099.51 158.21 1100.24 160.46 1101.05 162.71 1101.86 164.78 1102.82 166.67 1103.94 168.55 1105.06 170.08 1106.63 171.24 1108.67 172.41 1110.71 172.99 1113.15 172.99 1116 172.99 1120.24 171.48 1123.94 168.46 1127.1 165.43 1130.25 160.65 1131.83 154.13 1131.83 Z" fill="#171717" fill-opacity="1" stroke="none"/>
   <path id="Путь-14" d="M207.67 1131.83 C199.98 1131.83 193.76 1129.1 189.01 1123.62 184.26 1118.15 181.89 1111.26 181.89 1102.94 181.89 1094.62 184.26 1087.73 189.01 1082.26 193.76 1076.79 199.97 1074.05 207.67 1074.05 215.31 1074.05 221.51 1076.79 226.29 1082.26 231.06 1087.73 233.45 1094.63 233.45 1102.94 233.45 1111.26 231.06 1118.15 226.29 1123.62 221.51 1129.1 215.31 1131.83 207.67 1131.83 Z M207.67 1127.48 C213.93 1127.48 218.99 1125.18 222.86 1120.57 226.73 1115.96 228.67 1110.09 228.67 1102.94 228.67 1095.74 226.75 1089.85 222.9 1085.27 219.05 1080.69 213.98 1078.4 207.67 1078.4 201.31 1078.4 196.21 1080.69 192.4 1085.27 188.58 1089.85 186.67 1095.74 186.67 1102.94 186.67 1110.09 188.58 1115.96 192.4 1120.57 196.21 1125.17 201.31 1127.48 207.67 1127.48 Z" fill="#171717" fill-opacity="1" stroke="none"/>
   <path id="Путь-15" d="M281.26 1130.83 L275.77 1130.83 260.89 1107.72 249.2 1107.72 249.2 1130.83 244.67 1130.83 244.67 1074.97 264.48 1074.97 C269.15 1074.97 273 1076.45 276.06 1079.41 279.11 1082.37 280.63 1086.33 280.63 1091.3 280.63 1096.16 279.21 1100.01 276.37 1102.86 273.53 1105.71 270.05 1107.21 265.91 1107.38 Z M264.07 1103.36 C267.57 1103.36 270.41 1102.23 272.58 1099.97 274.75 1097.71 275.84 1094.82 275.84 1091.3 275.84 1087.78 274.75 1084.91 272.58 1082.67 270.4 1080.44 267.57 1079.32 264.07 1079.32 L249.2 1079.32 249.2 1103.35 264.07 1103.35 Z" fill="#171717" fill-opacity="1" stroke="none"/>
   <path id="Путь-16" d="M309.26 1130.83 L304.65 1130.83 304.65 1079.33 287.3 1079.33 287.3 1074.98 326.6 1074.98 326.6 1079.33 309.26 1079.33 Z" fill="#171717" fill-opacity="1" stroke="none"/>
   <path id="Путь-17" d="M399.39 1130.83 L394.78 1130.83 394.78 1104.28 361.13 1104.28 361.13 1130.83 356.6 1130.83 356.6 1074.97 361.13 1074.97 361.13 1099.93 394.78 1099.93 394.78 1074.97 399.39 1074.97 Z" fill="#171717" fill-opacity="1" stroke="none"/>
   <path id="Путь-18" d="M436.31 1131.83 C428.62 1131.83 422.4 1129.1 417.65 1123.62 412.9 1118.15 410.53 1111.26 410.53 1102.94 410.53 1094.62 412.9 1087.73 417.65 1082.26 422.4 1076.79 428.61 1074.05 436.31 1074.05 443.95 1074.05 450.15 1076.79 454.93 1082.26 459.7 1087.73 462.09 1094.63 462.09 1102.94 462.09 1111.26 459.7 1118.15 454.93 1123.62 450.15 1129.1 443.94 1131.83 436.31 1131.83 Z M436.31 1127.48 C442.57 1127.48 447.63 1125.18 451.5 1120.57 455.37 1115.96 457.31 1110.09 457.31 1102.94 457.31 1095.74 455.39 1089.85 451.54 1085.27 447.69 1080.69 442.62 1078.4 436.31 1078.4 429.95 1078.4 424.85 1080.69 421.04 1085.27 417.22 1089.85 415.31 1095.74 415.31 1102.94 415.31 1110.09 417.22 1115.96 421.04 1120.57 424.85 1125.17 429.94 1127.48 436.31 1127.48 Z" fill="#171717" fill-opacity="1" stroke="none"/>
   <path id="Путь-19" d="M489.13 1130.83 L484.52 1130.83 484.52 1079.33 467.18 1079.33 467.18 1074.98 506.48 1074.98 506.48 1079.33 489.14 1079.33 489.14 1130.83 Z" fill="#171717" fill-opacity="1" stroke="none"/>
   <path id="Путь-20" d="M549.51 1130.83 L515.86 1130.83 515.86 1074.97 549.51 1074.97 549.51 1079.32 520.4 1079.32 520.4 1100 548.96 1100 548.96 1104.35 520.4 1104.35 520.4 1126.46 549.52 1126.46 549.52 1130.83 Z" fill="#171717" fill-opacity="1" stroke="none"/>
   <path id="Путь-21" d="M590.96 1130.83 L560.73 1130.83 560.73 1074.97 565.26 1074.97 565.26 1126.47 590.96 1126.47 Z" fill="#171717" fill-opacity="1" stroke="none"/>
  </g>
  <g id="group-4">
   <path id="Путь-22" d="M1237.72 1094.51 L1220.02 1091.81 1212.09 1074.91 C1211.5 1073.65 1209.43 1073.65 1208.83 1074.91 L1200.9 1091.81 1183.2 1094.51 C1181.75 1094.73 1181.17 1096.5 1182.19 1097.54 L1195.05 1110.72 1192.01 1129.35 C1191.77 1130.83 1193.35 1131.94 1194.66 1131.21 L1210.47 1122.47 1226.28 1131.21 C1227.58 1131.93 1229.17 1130.84 1228.93 1129.35 L1225.89 1110.72 1238.75 1097.54 C1239.75 1096.5 1239.17 1094.73 1237.72 1094.51 Z" fill="#ffcc00" fill-opacity="1" stroke="none"/>
   <path id="Путь-23" d="M1306.22 1094.51 L1288.52 1091.81 1280.59 1074.91 C1280 1073.65 1277.93 1073.65 1277.33 1074.91 L1269.4 1091.81 1251.7 1094.51 C1250.25 1094.73 1249.67 1096.5 1250.69 1097.54 L1263.55 1110.72 1260.51 1129.35 C1260.27 1130.83 1261.85 1131.94 1263.16 1131.21 L1278.97 1122.47 1294.78 1131.21 C1296.08 1131.93 1297.67 1130.84 1297.43 1129.35 L1294.39 1110.72 1307.25 1097.54 C1308.26 1096.5 1307.68 1094.73 1306.22 1094.51 Z" fill="#ffcc00" fill-opacity="1" stroke="none"/>
   <path id="Путь-24" d="M1375.48 1094.51 L1357.78 1091.81 1349.85 1074.91 C1349.26 1073.65 1347.19 1073.65 1346.59 1074.91 L1338.66 1091.81 1320.96 1094.51 C1319.51 1094.73 1318.93 1096.5 1319.95 1097.54 L1332.81 1110.72 1329.77 1129.35 C1329.53 1130.83 1331.11 1131.94 1332.42 1131.21 L1348.23 1122.47 1364.04 1131.21 C1365.34 1131.93 1366.93 1130.84 1366.69 1129.35 L1363.65 1110.72 1376.51 1097.54 C1377.51 1096.5 1376.93 1094.73 1375.48 1094.51 Z" fill="#ffcc00" fill-opacity="1" stroke="none"/>
   <path id="Путь-25" d="M1443.73 1094.51 L1426.03 1091.81 1418.1 1074.91 C1417.51 1073.65 1415.44 1073.65 1414.84 1074.91 L1406.91 1091.81 1389.21 1094.51 C1387.76 1094.73 1387.18 1096.5 1388.2 1097.54 L1401.06 1110.72 1398.02 1129.35 C1397.78 1130.83 1399.36 1131.94 1400.67 1131.21 L1416.48 1122.47 1432.29 1131.21 C1433.59 1131.93 1435.18 1130.84 1434.94 1129.35 L1431.9 1110.72 1444.76 1097.54 C1445.76 1096.5 1445.18 1094.73 1443.73 1094.51 Z" fill="#ffcc00" fill-opacity="1" stroke="none"/>
  </g>
 </g>
</svg>
